<svg width="131" height="72" viewBox="0 0 131 72" fill="none" xmlns="http://www.w3.org/2000/svg">
<path d="M115.898 52.784V30.384H130.906V34.256H120.698V39.536H129.946V43.248H120.698V48.912H130.906V52.784H115.898Z" fill="white"/>
<path d="M97.8072 53.168C96.2072 53.168 94.7566 52.9013 93.4552 52.368C92.1752 51.8133 91.1619 51.0027 90.4152 49.936C89.6686 48.8693 89.2632 47.5573 89.1992 46H94.3192C94.3406 46.6187 94.5006 47.1627 94.7992 47.632C95.0979 48.1013 95.5032 48.4747 96.0152 48.752C96.5272 49.008 97.1246 49.136 97.8072 49.136C98.3832 49.136 98.8846 49.0507 99.3112 48.88C99.7592 48.688 100.111 48.4213 100.367 48.08C100.623 47.7173 100.751 47.2693 100.751 46.736C100.751 46.1813 100.602 45.712 100.303 45.328C100.005 44.9227 99.5992 44.5813 99.0872 44.304C98.5752 44.0053 97.9779 43.7387 97.2952 43.504C96.6339 43.248 95.9192 43.0027 95.1512 42.768C93.3806 42.192 92.0152 41.4133 91.0552 40.432C90.1166 39.4507 89.6472 38.1387 89.6472 36.496C89.6472 35.1307 89.9779 33.968 90.6392 33.008C91.3219 32.0267 92.2499 31.28 93.4232 30.768C94.5966 30.256 95.9299 30 97.4232 30C98.9592 30 100.314 30.2667 101.487 30.8C102.661 31.312 103.589 32.0693 104.271 33.072C104.954 34.0533 105.317 35.2267 105.359 36.592H100.207C100.186 36.1227 100.047 35.696 99.7912 35.312C99.5566 34.928 99.2259 34.6187 98.7992 34.384C98.3939 34.1493 97.9139 34.032 97.3592 34.032C96.8686 34.0107 96.4206 34.0853 96.0152 34.256C95.6312 34.4053 95.3112 34.6507 95.0552 34.992C94.8206 35.312 94.7032 35.7173 94.7032 36.208C94.7032 36.6773 94.8206 37.0933 95.0552 37.456C95.3112 37.7973 95.6526 38.096 96.0792 38.352C96.5272 38.5867 97.0392 38.8107 97.6152 39.024C98.2126 39.2373 98.8632 39.4507 99.5672 39.664C100.698 40.048 101.733 40.5067 102.671 41.04C103.631 41.552 104.399 42.2347 104.975 43.088C105.573 43.92 105.871 45.0293 105.871 46.416C105.871 47.632 105.551 48.752 104.911 49.776C104.293 50.8 103.386 51.6213 102.191 52.24C101.018 52.8587 99.5566 53.168 97.8072 53.168Z" fill="white"/>
<path d="M58.9375 52.784L67.0975 30.384H72.6015L80.7615 52.784H75.6735L69.8175 35.792L63.9615 52.784H58.9375ZM62.4895 47.888L63.7695 44.176H75.5135L76.7615 47.888H62.4895Z" fill="white"/>
<path d="M44.9645 52.784V30.384H49.7645V52.784H44.9645ZM30.9165 52.784V30.384H35.7165V52.784H30.9165ZM35.1085 43.28V39.408H45.7325V43.28H35.1085Z" fill="white"/>
<path d="M10.848 53.168C8.608 53.168 6.67733 52.688 5.056 51.728C3.43467 50.7467 2.18667 49.392 1.312 47.664C0.437333 45.9147 0 43.9093 0 41.648C0 39.344 0.437333 37.328 1.312 35.6C2.18667 33.8507 3.43467 32.4853 5.056 31.504C6.67733 30.5013 8.608 30 10.848 30C13.6213 30 15.8827 30.6933 17.632 32.08C19.4027 33.4667 20.5013 35.4187 20.928 37.936H15.68C15.424 36.8053 14.88 35.9307 14.048 35.312C13.216 34.672 12.1387 34.352 10.816 34.352C9.55733 34.352 8.48 34.6507 7.584 35.248C6.70933 35.8453 6.03733 36.688 5.568 37.776C5.12 38.8427 4.896 40.1333 4.896 41.648C4.896 43.12 5.12 44.4 5.568 45.488C6.03733 46.5547 6.70933 47.3867 7.584 47.984C8.48 48.56 9.55733 48.848 10.816 48.848C12.1387 48.848 13.2053 48.5707 14.016 48.016C14.848 47.44 15.4027 46.6187 15.68 45.552H20.928C20.5013 47.92 19.4027 49.7867 17.632 51.152C15.8827 52.496 13.6213 53.168 10.848 53.168Z" fill="white"/>
<path d="M114.007 22.784V0.383972H122.711C124.546 0.383972 126.061 0.693306 127.255 1.31197C128.471 1.93064 129.378 2.78397 129.975 3.87197C130.573 4.93864 130.871 6.14397 130.871 7.48797C130.871 8.74664 130.583 9.90931 130.007 10.976C129.431 12.0426 128.546 12.9066 127.351 13.568C126.157 14.2293 124.61 14.56 122.711 14.56H118.807V22.784H114.007ZM118.807 10.72H122.391C123.65 10.72 124.557 10.432 125.111 9.85597C125.687 9.25864 125.975 8.46931 125.975 7.48797C125.975 6.48531 125.687 5.70664 125.111 5.15197C124.557 4.57597 123.65 4.28797 122.391 4.28797H118.807V10.72Z" fill="white"/>
<path d="M83.0093 22.784L91.1693 0.383972H96.6733L104.833 22.784H99.7453L93.8893 5.79197L88.0333 22.784H83.0093ZM86.5613 17.888L87.8413 14.176H99.5853L100.833 17.888H86.5613Z" fill="white"/>
<path d="M57.6133 22.784V0.383972H66.3173C68.1306 0.383972 69.6346 0.703973 70.8293 1.34397C72.0453 1.96264 72.9413 2.79464 73.5173 3.83997C74.1146 4.88531 74.4133 6.04797 74.4133 7.32797C74.4133 8.52264 74.1253 9.64264 73.5493 10.688C72.9946 11.7333 72.1199 12.576 70.9253 13.216C69.7306 13.856 68.1839 14.176 66.2853 14.176H62.4133V22.784H57.6133ZM69.1653 22.784L64.6533 12.992H69.8053L74.6053 22.784H69.1653ZM62.4133 10.72H66.0293C67.2239 10.72 68.0986 10.432 68.6533 9.85597C69.2293 9.27997 69.5173 8.50131 69.5173 7.51997C69.5173 6.55997 69.2293 5.80264 68.6533 5.24797C68.0986 4.67197 67.2239 4.38397 66.0293 4.38397H62.4133V10.72Z" fill="white"/>
<path d="M37.5448 23.168C35.3048 23.168 33.3741 22.688 31.7528 21.728C30.1314 20.7467 28.8834 19.392 28.0088 17.664C27.1341 15.9147 26.6968 13.9093 26.6968 11.648C26.6968 9.344 27.1341 7.328 28.0088 5.6C28.8834 3.85067 30.1314 2.48533 31.7528 1.504C33.3741 0.501333 35.3048 0 37.5448 0C40.3181 0 42.5794 0.693333 44.3288 2.08C46.0994 3.46667 47.1981 5.41867 47.6248 7.936H42.3768C42.1208 6.80533 41.5768 5.93067 40.7448 5.312C39.9128 4.672 38.8354 4.352 37.5128 4.352C36.2541 4.352 35.1768 4.65067 34.2808 5.248C33.4061 5.84533 32.7341 6.688 32.2648 7.776C31.8168 8.84267 31.5928 10.1333 31.5928 11.648C31.5928 13.12 31.8168 14.4 32.2648 15.488C32.7341 16.5547 33.4061 17.3867 34.2808 17.984C35.1768 18.56 36.2541 18.848 37.5128 18.848C38.8354 18.848 39.9021 18.5707 40.7128 18.016C41.5448 17.44 42.0994 16.6187 42.3768 15.552H47.6248C47.1981 17.92 46.0994 19.7867 44.3288 21.152C42.5794 22.496 40.3181 23.168 37.5448 23.168Z" fill="white"/>
<path d="M9.31015 23.168C7.71015 23.168 6.25948 22.9013 4.95815 22.368C3.67815 21.8133 2.66482 21.0027 1.91815 19.936C1.17148 18.8693 0.766148 17.5573 0.702148 16H5.82215C5.84348 16.6187 6.00348 17.1627 6.30215 17.632C6.60082 18.1013 7.00615 18.4747 7.51815 18.752C8.03015 19.008 8.62748 19.136 9.31015 19.136C9.88615 19.136 10.3875 19.0507 10.8141 18.88C11.2621 18.688 11.6141 18.4213 11.8701 18.08C12.1261 17.7173 12.2541 17.2693 12.2541 16.736C12.2541 16.1813 12.1048 15.712 11.8061 15.328C11.5075 14.9227 11.1021 14.5813 10.5901 14.304C10.0781 14.0053 9.48082 13.7387 8.79815 13.504C8.13682 13.248 7.42215 13.0027 6.65415 12.768C4.88348 12.192 3.51815 11.4133 2.55815 10.432C1.61948 9.45067 1.15015 8.13867 1.15015 6.496C1.15015 5.13067 1.48082 3.968 2.14215 3.008C2.82482 2.02667 3.75282 1.28 4.92615 0.768C6.09948 0.256 7.43282 0 8.92615 0C10.4621 0 11.8168 0.266666 12.9901 0.799999C14.1635 1.312 15.0915 2.06933 15.7741 3.072C16.4568 4.05333 16.8195 5.22667 16.8621 6.592H11.7101C11.6888 6.12267 11.5501 5.696 11.2941 5.312C11.0595 4.928 10.7288 4.61867 10.3021 4.384C9.89682 4.14933 9.41682 4.032 8.86215 4.032C8.37148 4.01067 7.92348 4.08533 7.51815 4.256C7.13415 4.40533 6.81415 4.65067 6.55815 4.992C6.32348 5.312 6.20615 5.71733 6.20615 6.208C6.20615 6.67733 6.32348 7.09333 6.55815 7.456C6.81415 7.79733 7.15548 8.096 7.58215 8.352C8.03015 8.58667 8.54215 8.81067 9.11815 9.024C9.71548 9.23733 10.3661 9.45067 11.0701 9.664C12.2008 10.048 13.2355 10.5067 14.1741 11.04C15.1341 11.552 15.9021 12.2347 16.4781 13.088C17.0755 13.92 17.3741 15.0293 17.3741 16.416C17.3741 17.632 17.0541 18.752 16.4141 19.776C15.7955 20.8 14.8888 21.6213 13.6941 22.24C12.5208 22.8587 11.0595 23.168 9.31015 23.168Z" fill="white"/>
<path d="M51.6611 70.8679L52.8911 68.1079H52.6011L50.6211 63.6279H51.5311L53.1711 67.4779L54.8911 63.6279H55.7611L52.5411 70.8679H51.6611Z" fill="white"/>
<path d="M47.892 68.788C47.6053 68.788 47.3453 68.748 47.112 68.668C46.8853 68.5813 46.6853 68.468 46.512 68.328C46.3386 68.188 46.1953 68.0246 46.082 67.838L46.012 68.668H45.252V61.468H46.092V64.458C46.252 64.198 46.482 63.9746 46.782 63.788C47.082 63.6013 47.452 63.508 47.892 63.508C48.3786 63.508 48.8053 63.6246 49.172 63.858C49.5386 64.0846 49.822 64.398 50.022 64.798C50.2286 65.1913 50.332 65.6413 50.332 66.148C50.332 66.6546 50.2286 67.108 50.022 67.508C49.822 67.908 49.5386 68.2213 49.172 68.448C48.8053 68.6746 48.3786 68.788 47.892 68.788ZM47.792 68.058C48.1186 68.058 48.4086 67.978 48.662 67.818C48.9153 67.658 49.112 67.438 49.252 67.158C49.3986 66.8713 49.472 66.5346 49.472 66.148C49.472 65.768 49.3986 65.4346 49.252 65.148C49.112 64.8613 48.9153 64.638 48.662 64.478C48.4086 64.318 48.1186 64.238 47.792 64.238C47.4586 64.238 47.1653 64.318 46.912 64.478C46.6586 64.638 46.462 64.8613 46.322 65.148C46.182 65.4346 46.112 65.768 46.112 66.148C46.112 66.5346 46.182 66.8713 46.322 67.158C46.462 67.438 46.6586 67.658 46.912 67.818C47.1653 67.978 47.4586 68.058 47.792 68.058Z" fill="white"/>
<path d="M38.5462 68.788C38.0595 68.788 37.6329 68.6746 37.2662 68.448C36.8995 68.2146 36.6162 67.898 36.4162 67.498C36.2162 67.098 36.1162 66.6446 36.1162 66.138C36.1162 65.6313 36.2162 65.1813 36.4162 64.788C36.6162 64.388 36.8995 64.0746 37.2662 63.848C37.6395 63.6213 38.0695 63.508 38.5562 63.508C38.9695 63.508 39.3295 63.5913 39.6362 63.758C39.9495 63.9246 40.1895 64.158 40.3562 64.458V61.468H41.1962V68.668H40.4362L40.3662 67.838C40.2595 68.0046 40.1229 68.1613 39.9562 68.308C39.7895 68.448 39.5895 68.5646 39.3562 68.658C39.1229 68.7446 38.8529 68.788 38.5462 68.788ZM38.6462 68.058C38.9795 68.058 39.2729 67.978 39.5262 67.818C39.7795 67.658 39.9762 67.438 40.1162 67.158C40.2562 66.8713 40.3262 66.5346 40.3262 66.148C40.3262 65.768 40.2562 65.4346 40.1162 65.148C39.9762 64.8613 39.7795 64.638 39.5262 64.478C39.2729 64.318 38.9795 64.238 38.6462 64.238C38.3195 64.238 38.0295 64.318 37.7762 64.478C37.5229 64.638 37.3262 64.8613 37.1862 65.148C37.0462 65.4346 36.9762 65.768 36.9762 66.148C36.9762 66.5346 37.0462 66.8713 37.1862 67.158C37.3262 67.438 37.5229 67.658 37.7762 67.818C38.0295 67.978 38.3195 68.058 38.6462 68.058Z" fill="white"/>
<path d="M32.8526 68.7879C32.3793 68.7879 31.9593 68.6779 31.5926 68.4579C31.2326 68.2379 30.9493 67.9313 30.7426 67.5379C30.5359 67.1379 30.4326 66.6746 30.4326 66.1479C30.4326 65.6146 30.5326 65.1513 30.7326 64.7579C30.9393 64.3646 31.226 64.0579 31.5926 63.8379C31.966 63.6179 32.3926 63.5079 32.8726 63.5079C33.366 63.5079 33.7826 63.6179 34.1226 63.8379C34.4693 64.0579 34.7326 64.3479 34.9126 64.7079C35.0993 65.0613 35.1926 65.4513 35.1926 65.8779C35.1926 65.9446 35.1926 66.0146 35.1926 66.0879C35.1926 66.1613 35.1893 66.2446 35.1826 66.3379H31.0626V65.6879H34.3726C34.3526 65.2279 34.1993 64.8679 33.9126 64.6079C33.6326 64.3479 33.2793 64.2179 32.8526 64.2179C32.566 64.2179 32.2993 64.2846 32.0526 64.4179C31.8126 64.5446 31.6193 64.7346 31.4726 64.9879C31.326 65.2346 31.2526 65.5446 31.2526 65.9179V66.1979C31.2526 66.6113 31.326 66.9579 31.4726 67.2379C31.626 67.5179 31.8226 67.7279 32.0626 67.8679C32.3093 68.0079 32.5726 68.0779 32.8526 68.0779C33.206 68.0779 33.4959 68.0013 33.7226 67.8479C33.9559 67.6879 34.1226 67.4746 34.2226 67.2079H35.0526C34.9726 67.5079 34.8326 67.7779 34.6326 68.0179C34.4326 68.2579 34.1826 68.4479 33.8826 68.5879C33.5893 68.7213 33.246 68.7879 32.8526 68.7879Z" fill="white"/>
<path d="M27.127 68.6679V63.6279H27.887L27.947 64.5879C28.0603 64.3613 28.2036 64.1679 28.377 64.0079C28.557 63.8479 28.7703 63.7246 29.017 63.6379C29.2703 63.5513 29.557 63.5079 29.877 63.5079V64.3879H29.567C29.3536 64.3879 29.1503 64.4179 28.957 64.4779C28.7636 64.5313 28.5903 64.6213 28.437 64.7479C28.2903 64.8746 28.1736 65.0479 28.087 65.2679C28.007 65.4813 27.967 65.7479 27.967 66.0679V68.6679H27.127Z" fill="white"/>
<path d="M23.6534 68.7879C23.1801 68.7879 22.7601 68.6779 22.3934 68.4579C22.0334 68.2379 21.7501 67.9313 21.5434 67.5379C21.3367 67.1379 21.2334 66.6746 21.2334 66.1479C21.2334 65.6146 21.3334 65.1513 21.5334 64.7579C21.7401 64.3646 22.0267 64.0579 22.3934 63.8379C22.7667 63.6179 23.1934 63.5079 23.6734 63.5079C24.1667 63.5079 24.5834 63.6179 24.9234 63.8379C25.2701 64.0579 25.5334 64.3479 25.7134 64.7079C25.9001 65.0613 25.9934 65.4513 25.9934 65.8779C25.9934 65.9446 25.9934 66.0146 25.9934 66.0879C25.9934 66.1613 25.9901 66.2446 25.9834 66.3379H21.8634V65.6879H25.1734C25.1534 65.2279 25.0001 64.8679 24.7134 64.6079C24.4334 64.3479 24.0801 64.2179 23.6534 64.2179C23.3667 64.2179 23.1001 64.2846 22.8534 64.4179C22.6134 64.5446 22.4201 64.7346 22.2734 64.9879C22.1267 65.2346 22.0534 65.5446 22.0534 65.9179V66.1979C22.0534 66.6113 22.1267 66.9579 22.2734 67.2379C22.4267 67.5179 22.6234 67.7279 22.8634 67.8679C23.1101 68.0079 23.3734 68.0779 23.6534 68.0779C24.0067 68.0779 24.2967 68.0013 24.5234 67.8479C24.7567 67.6879 24.9234 67.4746 25.0234 67.2079H25.8534C25.7734 67.5079 25.6334 67.7779 25.4334 68.0179C25.2334 68.2579 24.9834 68.4479 24.6834 68.5879C24.3901 68.7213 24.0467 68.7879 23.6534 68.7879Z" fill="white"/>
<path d="M15.022 68.6679L13.542 63.6279H14.382L15.532 67.8779H15.382L16.632 63.6279H17.582L18.852 67.8679L18.692 67.8779L19.832 63.6279H20.682L19.212 68.6679H18.352L17.032 64.2279H17.202L15.882 68.6679H15.022Z" fill="white"/>
<path d="M10.5098 68.7879C10.0431 68.7879 9.62314 68.6813 9.2498 68.4679C8.87647 68.2479 8.58314 67.9413 8.3698 67.5479C8.15647 67.1479 8.0498 66.6846 8.0498 66.1579C8.0498 65.6179 8.15647 65.1513 8.3698 64.7579C8.5898 64.3579 8.88647 64.0513 9.2598 63.8379C9.6398 63.6179 10.0631 63.5079 10.5298 63.5079C11.0098 63.5079 11.4331 63.6179 11.7998 63.8379C12.1731 64.0513 12.4665 64.3579 12.6798 64.7579C12.8998 65.1513 13.0098 65.6146 13.0098 66.1479C13.0098 66.6813 12.8998 67.1479 12.6798 67.5479C12.4598 67.9413 12.1631 68.2479 11.7898 68.4679C11.4165 68.6813 10.9898 68.7879 10.5098 68.7879ZM10.5198 68.0679C10.8065 68.0679 11.0731 67.9979 11.3198 67.8579C11.5665 67.7113 11.7665 67.4946 11.9198 67.2079C12.0731 66.9213 12.1498 66.5679 12.1498 66.1479C12.1498 65.7213 12.0731 65.3679 11.9198 65.0879C11.7731 64.8013 11.5765 64.5879 11.3298 64.4479C11.0898 64.3013 10.8231 64.2279 10.5298 64.2279C10.2498 64.2279 9.98314 64.3013 9.7298 64.4479C9.48314 64.5879 9.28314 64.8013 9.1298 65.0879C8.98314 65.3679 8.9098 65.7213 8.9098 66.1479C8.9098 66.5679 8.98314 66.9213 9.1298 67.2079C9.28314 67.4946 9.4798 67.7113 9.7198 67.8579C9.96647 67.9979 10.2331 68.0679 10.5198 68.0679Z" fill="white"/>
<path d="M2 70.8679V63.6279H2.76L2.83 64.4479C2.93667 64.2879 3.07333 64.1379 3.24 63.9979C3.40667 63.8513 3.60667 63.7346 3.84 63.6479C4.07333 63.5546 4.34 63.5079 4.64 63.5079C5.13333 63.5079 5.56 63.6246 5.92 63.8579C6.28667 64.0913 6.57 64.4079 6.77 64.8079C6.97667 65.2013 7.08 65.6513 7.08 66.1579C7.08 66.6646 6.97667 67.1179 6.77 67.5179C6.57 67.9113 6.28667 68.2213 5.92 68.4479C5.55333 68.6746 5.12333 68.7879 4.63 68.7879C4.22333 68.7879 3.86333 68.7046 3.55 68.5379C3.24333 68.3713 3.00667 68.1379 2.84 67.8379V70.8679H2ZM4.54 68.0579C4.86667 68.0579 5.15667 67.9779 5.41 67.8179C5.66333 67.6579 5.86 67.4379 6 67.1579C6.14667 66.8713 6.22 66.5346 6.22 66.1479C6.22 65.7679 6.14667 65.4346 6 65.1479C5.86 64.8613 5.66333 64.6379 5.41 64.4779C5.15667 64.3179 4.86667 64.2379 4.54 64.2379C4.20667 64.2379 3.91333 64.3179 3.66 64.4779C3.40667 64.6379 3.21 64.8613 3.07 65.1479C2.93 65.4346 2.86 65.7679 2.86 66.1479C2.86 66.5346 2.93 66.8713 3.07 67.1579C3.21 67.4379 3.40667 67.6579 3.66 67.8179C3.91333 67.9779 4.20667 68.0579 4.54 68.0579Z" fill="white"/>
<mask id="mask0_19_658" style="mask-type:luminance" maskUnits="userSpaceOnUse" x="57" y="59" width="33" height="13">
<path d="M89.7612 59.168H57.7612V71.168H89.7612V59.168Z" fill="white"/>
</mask>
<g mask="url(#mask0_19_658)">
<path fill-rule="evenodd" clip-rule="evenodd" d="M64.7922 62.3319C64.4235 61.9685 63.9917 61.6841 63.4913 61.4787C62.9963 61.2733 62.4538 61.168 61.8692 61.168C61.2846 61.168 60.7422 61.2733 60.2418 61.4787C59.7415 61.6841 59.3096 61.9685 58.941 62.3319C58.5723 62.6953 58.2879 63.1166 58.0772 63.6012C57.8666 64.0857 57.7612 64.6071 57.7612 65.1601C57.7612 65.7131 57.8666 66.2345 58.0772 66.719C58.2879 67.2035 58.5776 67.6249 58.941 67.9883C59.3096 68.3517 59.7415 68.6361 60.2418 68.8415C60.7422 69.0469 61.2846 69.1522 61.8692 69.1522C62.4538 69.1522 62.9963 69.0469 63.4966 68.8415C63.9969 68.6361 64.4288 68.3517 64.7975 67.9883C65.1661 67.6249 65.4505 67.2035 65.6612 66.719C65.8719 66.2345 65.9772 65.7131 65.9772 65.1601C65.9772 64.6071 65.8719 64.0857 65.6612 63.6012C65.4505 63.1219 65.1609 62.6953 64.7922 62.3319ZM64.5341 66.2924C64.3867 66.6453 64.1813 66.9507 63.9179 67.2141C63.6546 67.4774 63.3491 67.6828 62.9963 67.8303C62.6434 67.9777 62.2695 68.0515 61.8692 68.0515C61.4689 68.0515 61.095 67.9777 60.7422 67.8303C60.3893 67.6828 60.0838 67.4774 59.8205 67.2141C59.5572 66.9507 59.3518 66.6453 59.2043 66.2924C59.0568 65.9395 58.9831 65.5656 58.9831 65.1654C58.9831 64.7651 59.0568 64.3912 59.2043 64.0383C59.3518 63.6854 59.5572 63.38 59.8205 63.1166C60.0838 62.8533 60.3893 62.6479 60.7422 62.5004C61.095 62.353 61.4689 62.2792 61.8692 62.2792C62.2695 62.2792 62.6434 62.353 62.9963 62.5004C63.3491 62.6479 63.6546 62.8533 63.9179 63.1166C64.1813 63.38 64.3867 63.6854 64.5341 64.0383C64.6816 64.3912 64.7553 64.7651 64.7553 65.1654C64.7553 65.5656 64.6816 65.9395 64.5341 66.2924Z" fill="#FF610F"/>
<path d="M69.2845 67.6624L67.7887 63.7229H66.5669L68.6735 69.0475H69.8954L72.0073 63.7229H70.7855L69.2845 67.6624Z" fill="#FF610F"/>
<path fill-rule="evenodd" clip-rule="evenodd" d="M76.0102 63.8223C76.3526 63.9698 76.6475 64.1647 76.895 64.4122C77.1426 64.665 77.3374 64.9547 77.4849 65.297C77.6271 65.6393 77.7008 66.0027 77.7008 66.3872C77.7008 66.7822 77.6271 67.1456 77.4849 67.4826C77.3374 67.8197 77.1426 68.1146 76.895 68.3622C76.6422 68.6097 76.3526 68.8098 76.0102 68.952C75.6679 69.0942 75.3045 69.168 74.92 69.168C74.525 69.168 74.1616 69.0942 73.8246 68.952C73.4928 68.8046 73.1978 68.6097 72.9503 68.3622C72.7028 68.1094 72.5026 67.8197 72.3604 67.4826C72.2182 67.1456 72.1445 66.7769 72.1445 66.3872C72.1445 66.0027 72.2182 65.6393 72.3604 65.297C72.5079 64.9547 72.7028 64.6597 72.9503 64.4122C73.1978 64.1647 73.4875 63.9645 73.8246 63.8223C74.1616 63.6801 74.525 63.6064 74.92 63.6064C75.3045 63.6064 75.6679 63.6801 76.0102 63.8223ZM76.1103 67.6196C76.2578 67.4721 76.3736 67.2878 76.4579 67.0771C76.5422 66.8664 76.5896 66.6347 76.5843 66.3819C76.5843 66.1291 76.5422 65.8974 76.4579 65.6867C76.3736 65.4761 76.2578 65.297 76.1103 65.1443C75.9628 64.9968 75.789 64.8757 75.5836 64.7914C75.3835 64.7071 75.1623 64.665 74.9253 64.665C74.6883 64.665 74.4724 64.7071 74.267 64.7914C74.0616 64.8757 73.8878 64.9915 73.7403 65.1443C73.5928 65.297 73.477 65.4761 73.3927 65.6867C73.3084 65.8974 73.2663 66.1291 73.2663 66.3819C73.2663 66.6347 73.3084 66.8664 73.3927 67.0771C73.477 67.2878 73.5928 67.4668 73.7403 67.6196C73.8878 67.767 74.0616 67.8882 74.267 67.9724C74.4671 68.0567 74.6883 68.0988 74.9253 68.0988C75.1623 68.0988 75.3782 68.0567 75.5836 67.9724C75.789 67.8882 75.9628 67.7723 76.1103 67.6196Z" fill="#FF610F"/>
<path d="M83.5308 63.724H82.1404L79.8652 66.1625V61.2803H78.7539V69.0486H79.8652V67.6055L80.7552 66.6628L82.4195 69.0486H83.694L81.4768 65.8886L83.5308 63.724Z" fill="#FF610F"/>
<path fill-rule="evenodd" clip-rule="evenodd" d="M88.4497 64.4122C88.6973 64.665 88.8974 64.9547 89.0396 65.297C89.1818 65.6393 89.2555 66.0027 89.2555 66.3872C89.2555 66.7822 89.1818 67.1456 89.0396 67.4826C88.8921 67.8197 88.6973 68.1146 88.4497 68.3622C88.1969 68.6097 87.9073 68.8098 87.5649 68.952C87.2226 69.0942 86.8592 69.168 86.4747 69.168C86.0797 69.168 85.7163 69.0942 85.3793 68.952C85.0475 68.8046 84.7525 68.6097 84.505 68.3622C84.2575 68.1094 84.0574 67.8197 83.9152 67.4826C83.773 67.1456 83.6992 66.7769 83.6992 66.3872C83.6992 66.0027 83.773 65.6393 83.9152 65.297C84.0626 64.9547 84.2575 64.6597 84.505 64.4122C84.7525 64.1647 85.0422 63.9645 85.3793 63.8223C85.7163 63.6801 86.0797 63.6064 86.4747 63.6064C86.8592 63.6064 87.2226 63.6801 87.5649 63.8223C87.9073 63.9698 88.2022 64.1647 88.4497 64.4122ZM87.6703 67.6196C87.8177 67.4721 87.9336 67.2878 88.0179 67.0771C88.1021 66.8664 88.1443 66.6347 88.1443 66.3819C88.1443 66.1291 88.1021 65.8974 88.0179 65.6867C87.9336 65.4761 87.8177 65.297 87.6703 65.1443C87.5228 64.9968 87.349 64.8757 87.1436 64.7914C86.9435 64.7071 86.7223 64.665 86.4853 64.665C86.2483 64.665 86.0323 64.7071 85.8269 64.7914C85.6215 64.8757 85.4477 64.9915 85.3003 65.1443C85.1528 65.297 85.0369 65.4761 84.9527 65.6867C84.8684 65.8974 84.8263 66.1291 84.8263 66.3819C84.8263 66.6347 84.8684 66.8664 84.9527 67.0771C85.0369 67.2878 85.1528 67.4668 85.3003 67.6196C85.4477 67.767 85.6215 67.8882 85.8269 67.9724C86.0271 68.0567 86.2483 68.0988 86.4853 68.0988C86.7223 68.0988 86.9382 68.0567 87.1436 67.9724C87.349 67.8882 87.5228 67.7723 87.6703 67.6196Z" fill="#FF610F"/>
</g>
</svg>
